<?xml version="1.0" encoding="UTF-8"?>
<svg xmlns="http://www.w3.org/2000/svg" xmlns:xlink="http://www.w3.org/1999/xlink" width="20pt" height="20pt" viewBox="0 0 15 15" version="1.1">
<g id="surface1">
<path style=" stroke:none;fill-rule:nonzero;fill:#EE5514;fill-opacity:1;" d="M 13.59375 7.5 L 1.40625 7.5 C 0.628906 7.5 0 8.128906 0 8.90625 C 0 9.683594 0.628906 10.3125 1.40625 10.3125 L 13.59375 10.3125 C 14.371094 10.3125 15 9.683594 15 8.90625 C 15 8.128906 14.371094 7.5 13.59375 7.5 Z M 14.0625 11.25 L 0.9375 11.25 C 0.679688 11.25 0.46875 11.460938 0.46875 11.71875 L 0.46875 12.1875 C 0.46875 13.222656 1.308594 14.0625 2.34375 14.0625 L 12.65625 14.0625 C 13.691406 14.0625 14.53125 13.222656 14.53125 12.1875 L 14.53125 11.71875 C 14.53125 11.460938 14.320312 11.25 14.0625 11.25 Z M 1.71875 6.5625 L 13.28125 6.5625 C 14.292969 6.5625 14.882812 5.277344 14.300781 4.339844 C 13.125 2.4375 10.535156 0.941406 7.5 0.9375 C 4.464844 0.941406 1.875 2.4375 0.699219 4.339844 C 0.117188 5.277344 0.707031 6.5625 1.71875 6.5625 Z M 11.25 3.28125 C 11.507812 3.28125 11.71875 3.492188 11.71875 3.75 C 11.71875 4.007812 11.507812 4.21875 11.25 4.21875 C 10.992188 4.21875 10.78125 4.007812 10.78125 3.75 C 10.78125 3.492188 10.992188 3.28125 11.25 3.28125 Z M 7.5 2.34375 C 7.757812 2.34375 7.96875 2.554688 7.96875 2.8125 C 7.96875 3.070312 7.757812 3.28125 7.5 3.28125 C 7.242188 3.28125 7.03125 3.070312 7.03125 2.8125 C 7.03125 2.554688 7.242188 2.34375 7.5 2.34375 Z M 3.75 3.28125 C 4.007812 3.28125 4.21875 3.492188 4.21875 3.75 C 4.21875 4.007812 4.007812 4.21875 3.75 4.21875 C 3.492188 4.21875 3.28125 4.007812 3.28125 3.75 C 3.28125 3.492188 3.492188 3.28125 3.75 3.28125 Z M 3.75 3.28125 "/>
</g>
</svg>
